<?xml version="1.0" encoding="UTF-8"?>
<svg id="Laag_2" data-name="Laag 2" xmlns="http://www.w3.org/2000/svg" viewBox="0 0 449.35 745.08">
  <defs>
    <style>
      .cls-1 {
        fill: #fff;
      }

      .cls-2 {
        fill: #f03229;
      }
    </style>
  </defs>
  <g id="Laag_1-2" data-name="Laag 1">
    <g>
      <path class="cls-2" d="M224.48,82.48l6.81-17.65c54.38-102.05,214.21-78.85,218,44.08,2.32,75.19-70.91,128.47-118.96,176.85-28.63,28.83-57.36,57.91-85.92,86.92-6.52,6.62-14.77,22.12-25.58,14.1-38.43-39.55-77.65-78.52-116.73-117.5C49.32,216.62-11.35,174.95,1.83,90.12,13.68,13.81,104.56-22.85,169.45,15.13c23.49,13.75,47.47,41.06,55.04,67.35Z"/>
      <path class="cls-1" d="M336.61,336.48c2.8-2.41,8.15-.23,11.2-.2,23.41.27,46.62.22,69.93.99,7.2.24,18.61-1.21,24.99-.01,1.64.31,2.77,1.03,3.32,2.67l.25,215.64c-3.54,157.2-147,207.63-282.96,183.96C48.45,719.52,4.63,646.67,2.07,535.38c-.95-41.44.17-83.22.66-124.67.11-9.29-1.68-69.56.39-72.53,1.28-1.84,13.01-.71,16.09-.89,27.61-1.62,55.2-.63,82.92-.99,6.3-.08,10.6-3.46,11.5,6.4,2.66,71.62-4.14,144.47.96,215.82,5.49,76.68,87.15,97.35,151.06,80.15,77.59-20.88,68.86-82.2,69.76-148.02.66-48.08-3.51-101.8-.09-148.94.11-1.45.22-4.29,1.29-5.21Z"/>
    </g>
  </g>
</svg>